<?xml version="1.0" encoding="iso-8859-1"?>
<!-- Uploaded to: SVG Repo, www.svgrepo.com, Generator: SVG Repo Mixer Tools -->
<svg version="1.1" id="Layer_1" xmlns="http://www.w3.org/2000/svg" xmlns:xlink="http://www.w3.org/1999/xlink" 
	 viewBox="0 0 511.999 511.999" xml:space="preserve">
<rect x="191.76" y="343.187" style="fill:#D3EFFD;" width="226.666" height="160.652"/>
<rect x="167.434" y="415.178" transform="matrix(-0.9132 0.4075 -0.4075 -0.9132 750.6124 707.8217)" style="opacity:0.5;fill:#FFFFFF;enable-background:new    ;" width="264.982" height="37.343"/>
<polygon style="fill:#D3EFFD;" points="57.434,87.841 57.434,122.613 69.077,246.072 267.464,246.072 279.107,122.613 
	279.107,87.841 "/>
<g>
	<rect x="144.787" y="258.976" style="fill:#5D5D5D;" width="46.973" height="245.199"/>
	<rect x="242.164" y="346.435" style="fill:#5D5D5D;" width="31.473" height="157.74"/>
</g>
<g>
	<rect x="191.76" y="415.718" style="fill:#3E3B43;" width="50.404" height="22.453"/>
	<rect x="273.639" y="415.718" style="fill:#3E3B43;" width="50.404" height="22.453"/>
	<rect x="355.508" y="415.718" style="fill:#3E3B43;" width="50.404" height="22.453"/>
</g>
<g>
	<rect x="324.043" y="346.435" style="fill:#5D5D5D;" width="31.473" height="157.74"/>
	<rect x="405.688" y="346.435" style="fill:#5D5D5D;" width="31.473" height="157.74"/>
</g>
<rect x="191.76" y="303.892" style="fill:#F7B737;" width="226.666" height="30.305"/>
<path style="fill:#2D774E;" d="M149.815,96.289V61.414c0-3.36,2.749-6.11,6.11-6.11h24.693c3.36,0,6.11,2.749,6.11,6.11v34.876
	H149.815z"/>
<g>
	<polygon style="opacity:0.5;fill:#FFFFFF;enable-background:new    ;" points="57.434,87.841 57.434,122.613 69.077,246.072 
		112.425,246.072 112.425,87.841 	"/>
	<rect x="168.269" y="87.846" style="opacity:0.5;fill:#FFFFFF;enable-background:new    ;" width="53.357" height="158.229"/>
</g>
<path style="fill:#5D5D5D;" d="M224.231,241.999v34.835c0,3.36-2.749,6.11-6.11,6.11h-99.587c-3.36,0-6.11-2.749-6.11-6.11v-34.835
	L224.231,241.999L224.231,241.999z"/>
<path style="fill:#2D774E;" d="M178.797,57.62V13.85c0-3.523-2.749-6.405-6.11-6.405h-8.719c-3.36,0-6.11,2.883-6.11,6.405V57.62
	C157.858,57.62,178.797,57.62,178.797,57.62z"/>
<path style="fill:#174F79;" d="M437.157,511.809H144.783c-4.218,0-7.637-3.419-7.637-7.637c0-4.218,3.419-7.637,7.637-7.637h292.374
	c4.218,0,7.637,3.419,7.637,7.637C444.794,508.389,441.375,511.809,437.157,511.809z"/>
<rect x="57.43" y="87.846" style="fill:#54CE8E;" width="221.677" height="34.774"/>
<polygon style="fill:#5D5D5D;" points="66.228,215.857 69.077,246.072 267.464,246.072 270.313,215.857 "/>
<g>
	<rect x="112.427" y="246.074" style="fill:#3E3B43;" width="111.806" height="12.902"/>
	<rect x="242.164" y="358.338" style="fill:#3E3B43;" width="31.473" height="12.902"/>
	<rect x="144.787" y="282.946" style="fill:#3E3B43;" width="46.973" height="12.902"/>
	<rect x="324.043" y="358.338" style="fill:#3E3B43;" width="31.473" height="12.902"/>
	<rect x="405.688" y="358.338" style="fill:#3E3B43;" width="31.473" height="12.902"/>
</g>
<rect x="191.76" y="327.261" style="fill:#54CE8E;" width="263.69" height="31.473"/>
<path d="M455.007,319.815h-29.387v-12.68c0-4.218-3.419-7.637-7.637-7.637H198.954v-8.726h18.727c7.58,0,13.747-6.167,13.747-13.747
	v-23.124h35.597c3.94,0,7.234-2.997,7.603-6.92l2.843-30.144c0.001-0.006,0.001-0.011,0.002-0.017l8.792-93.228
	c0.001-0.006,0.001-0.011,0.002-0.017l0.005-0.054c0.008-0.09,0.006-0.178,0.011-0.267c0.009-0.15,0.022-0.298,0.022-0.45V88.032
	c0-4.218-3.419-7.637-7.637-7.637h-84.743v-18.79c0-5.499-3.253-10.241-7.929-12.437V13.747c0-7.58-6.167-13.747-13.747-13.747
	h-8.719c-7.58,0-13.747,6.167-13.747,13.747v35.366c-4.738,2.172-8.043,6.948-8.043,12.492v18.79H56.994
	c-4.218,0-7.637,3.419-7.637,7.637v34.771c0,0.152,0.014,0.3,0.022,0.45c0.005,0.089,0.003,0.178,0.011,0.267l0.005,0.054
	c0.001,0.006,0.001,0.011,0.002,0.017l8.792,93.225c0.001,0.007,0.001,0.015,0.002,0.022l2.842,30.142
	c0.37,3.923,3.664,6.92,7.603,6.92h35.711v23.124c0,7.58,6.167,13.747,13.747,13.747h18.613v213.591
	c0,4.218,3.419,7.637,7.637,7.637h46.974h50.404h31.473h50.404h31.473h50.172h31.473c4.218,0,7.637-3.419,7.637-7.637V366.56h10.651
	c4.218,0,7.637-3.419,7.637-7.637V327.45C462.644,323.235,459.224,319.815,455.007,319.815z M410.345,314.772v5.043H198.954v-5.043
	H410.345z M234.084,430.722h-35.13v-7.178h35.13V430.722z M198.954,445.996h35.13v50.73h-35.13V445.996z M234.084,408.27h-35.13
	v-41.708h35.13V408.27z M175.468,208.412V130.44h38.079v77.972H175.468z M119.621,208.412V130.44h40.572v77.972H119.621z
	 M72.738,208.412l-7.353-77.972h38.962v77.972H72.738z M228.821,130.441h41.455l-7.353,77.972h-34.102L228.821,130.441
	L228.821,130.441z M165.055,15.274h5.665v32.585h-5.665V15.274z M157.012,63.133h0.406h20.939h0.292v17.263h-21.638V63.133H157.012z
	 M64.631,95.669H271.03v19.497H64.631V95.669z M74.179,223.686h187.303l-1.409,14.941H217.68h-99.587H75.588L74.179,223.686z
	 M119.621,253.902h96.532v21.596h-24.837h-46.974H119.62v-21.596H119.621z M151.98,496.726V290.772h31.7v16.363v20.318v31.473
	v56.982v22.452v58.367H151.98z M249.358,496.726v-58.367v-22.452v-49.345h16.199v49.345v22.452v58.367H249.358z M315.962,366.562
	v41.708h-35.13v-41.708H315.962z M315.962,430.722h-35.13v-7.178h35.13V430.722z M280.832,445.996h35.13v50.73h-35.13V445.996z
	 M331.236,496.726v-58.367v-22.452v-49.345h16.199v49.345v22.452v58.367H331.236z M397.608,366.562v41.708H362.71v-41.708H397.608z
	 M397.608,430.722H362.71v-7.178h34.898V430.722z M362.709,445.996h34.898v50.73h-34.898V445.996z M429.08,496.726h-16.199v-56.529
	c0.146-0.59,0.232-1.204,0.232-1.839v-22.452c0-0.635-0.087-1.248-0.232-1.839V366.56h16.199V496.726z M447.37,351.288h-10.651
	h-31.473h-50.172h-31.473h-50.404h-31.473h-42.767v-16.199h219.028h29.387v16.199H447.37z"/>
</svg>
